<svg width="36" height="36" viewBox="0 0 36 36" fill="none" xmlns="http://www.w3.org/2000/svg">
<g id="Group">
<path id="Vector" d="M18 4.08246C14.5918 4.08246 11.8145 6.85978 11.8145 10.268C11.8145 13.002 13.5712 15.3649 16.1444 16.1691V22.0206H13.6701C13.3299 22.0206 13.0516 22.299 13.0516 22.6392V25.7319C13.0516 26.0722 13.3299 26.3505 13.6701 26.3505H16.1444V26.9691H14.2887C13.9485 26.9691 13.6701 27.2474 13.6701 27.5876V30.0618C13.6701 30.402 13.9485 30.6804 14.2887 30.6804H16.1444V31.299C16.1444 31.6392 16.4227 31.9175 16.7629 31.9175H19.2371C19.5773 31.9175 19.8557 31.6392 19.8557 31.299V16.1691C22.4289 15.3649 24.1856 13.0082 24.1856 10.268C24.1856 6.85978 21.4083 4.08246 18 4.08246ZM19.101 15.0866C18.8165 15.1484 18.6186 15.402 18.6186 15.6928V30.6804H17.3815V30.0618C17.3815 29.7216 17.1031 29.4433 16.7629 29.4433H14.9072V28.2062H16.7629C17.1031 28.2062 17.3815 27.9278 17.3815 27.5876V25.7319C17.3815 25.3917 17.1031 25.1134 16.7629 25.1134H14.2887V23.2577H16.7629C17.1031 23.2577 17.3815 22.9794 17.3815 22.6392V15.6928C17.3815 15.402 17.1835 15.1546 16.899 15.0866C14.6351 14.5732 13.0516 12.5876 13.0516 10.268C13.0516 7.54019 15.2722 5.31957 18 5.31957C20.7279 5.31957 22.9485 7.54019 22.9485 10.268C22.9485 12.5938 21.365 14.5732 19.101 15.0866ZM18 7.7938C16.633 7.7938 15.5258 8.90102 15.5258 10.268C15.5258 11.635 16.633 12.7423 18 12.7423C19.367 12.7423 20.4742 11.635 20.4742 10.268C20.4742 8.90102 19.367 7.7938 18 7.7938ZM18 11.5051C17.3196 11.5051 16.7629 10.9484 16.7629 10.268C16.7629 9.58761 17.3196 9.03091 18 9.03091C18.6804 9.03091 19.2371 9.58761 19.2371 10.268C19.2371 10.9484 18.6804 11.5051 18 11.5051Z" fill="#B5B5B5"/>
</g>
</svg>
