<svg width="25" height="21" viewBox="0 0 25 21" fill="none" xmlns="http://www.w3.org/2000/svg">
<g id="Group 354">
<path id="Vector" d="M22.792 12.1834V2.072C22.792 0.92722 21.8648 0 20.72 0H2.072C0.92722 0 0 0.92722 0 2.072V14.504C0 15.6488 0.92722 16.576 2.072 16.576H15.5711C15.8301 18.9018 17.8088 20.72 20.202 20.72C24.7811 20.72 26.62 14.7526 22.792 12.1834ZM1.036 4.144H21.756V5.698H1.036V4.144ZM2.072 1.036H20.72C21.2898 1.036 21.756 1.5022 21.756 2.072V3.108H1.036V2.072C1.036 1.5022 1.5022 1.036 2.072 1.036ZM1.036 14.504V6.734H21.756V11.6705C18.9122 10.6604 15.9026 12.577 15.5711 15.54H2.072C1.5022 15.54 1.036 15.0738 1.036 14.504ZM20.202 19.684C18.2025 19.684 16.576 18.0575 16.576 16.058C16.576 14.0585 18.2025 12.432 20.202 12.432C22.2015 12.432 23.828 14.0585 23.828 16.058C23.828 18.0575 22.2015 19.684 20.202 19.684Z" fill="#00BF04"/>
<path id="Vector_2" d="M12.95 8.28802H2.59002C2.30512 8.28802 2.07202 8.52112 2.07202 8.80602V10.878C2.07202 11.1629 2.30512 11.396 2.59002 11.396H12.95C13.2349 11.396 13.468 11.1629 13.468 10.878V8.80602C13.468 8.52112 13.2349 8.28802 12.95 8.28802ZM12.432 10.36H3.10802V9.32402H12.432V10.36Z" fill="#00BF04"/>
<path id="Vector_3" d="M4.66197 13.468H2.58997C1.90621 13.468 1.90621 14.504 2.58997 14.504H4.66197C5.34573 14.504 5.34573 13.468 4.66197 13.468Z" fill="#00BF04"/>
<path id="Vector_4" d="M8.80601 13.468H6.73401C6.05025 13.468 6.05025 14.504 6.73401 14.504H8.80601C9.48977 14.504 9.48977 13.468 8.80601 13.468Z" fill="#00BF04"/>
<path id="Vector_5" d="M12.9501 13.468H10.8781C10.1943 13.468 10.1943 14.504 10.8781 14.504H12.9501C13.6338 14.504 13.6338 13.468 12.9501 13.468Z" fill="#00BF04"/>
<path id="Vector_6" d="M21.3882 14.6542L19.6839 16.3584L19.0157 15.6902C18.5288 15.2033 17.7984 15.9389 18.2853 16.4206C19.9844 18.1196 19.3317 18.1818 22.1237 15.3846C22.6106 14.8977 21.8751 14.1673 21.3933 14.6542H21.3882Z" fill="#00BF04"/>
</g>
</svg>
