<svg width="24" height="16" viewBox="0 0 24 16" fill="none" xmlns="http://www.w3.org/2000/svg">
<g id="Capa_1" clip-path="url(#clip0_43_74)">
<path id="Vector" d="M17.3495 0H22.1552C23.1752 0 24 0.789327 24 1.75985V14.2401C24 15.2107 23.1726 16 22.1552 16H17.3495V0Z" fill="#D9071E"/>
<path id="Vector_2" d="M6.65051 16H1.84479C0.824841 16 3.57628e-05 15.2107 3.57628e-05 14.2401L3.57628e-05 1.75985C3.57628e-05 0.789327 0.827443 0 1.84479 0H6.65051L6.65051 16Z" fill="#00BF04"/>
<path id="Vector_3" d="M17.3496 0H6.65051V16H17.3496V0Z" fill="white"/>
<path id="Vector_4" d="M10.7537 8.32514C11.693 9.51409 13.137 9.33786 13.137 9.33786L12.3382 7.9826H14.0607C14.0607 7.9826 13.9905 6.9252 13.137 6.11105C12.6401 5.63696 11.8595 5.6593 11.2949 5.76355L10.6054 5.10577L9.59843 5.56746L10.4128 6.34437C10.2567 6.79116 10.1448 7.55815 10.7511 8.32514H10.7537ZM15.5256 7.13618C15.3226 7.12625 15.1457 7.28015 15.1379 7.47872C15.1327 7.60034 14.9766 10.4375 12.0494 10.4375C9.12228 10.4375 8.8751 7.50106 8.86469 7.37695C8.85168 7.18086 8.67215 7.03193 8.4666 7.04682C8.26105 7.05923 8.10494 7.2305 8.11795 7.42659C8.12055 7.46383 8.42237 11.1523 12.0468 11.1523C13.9488 11.1523 14.8933 10.1495 15.3539 9.31055C15.8378 8.42442 15.8794 7.54574 15.882 7.51099C15.8898 7.3149 15.7311 7.14859 15.523 7.14114L15.5256 7.13618Z" fill="#B5B5B5"/>
</g>
<defs>
<clipPath id="clip0_43_74">
<rect width="24" height="16" fill="white"/>
</clipPath>
</defs>
</svg>
