<svg width="35" height="35" viewBox="0 0 35 35" fill="none" xmlns="http://www.w3.org/2000/svg">
<g id="Group 251">
<g id="Group 315">
<path id="Vector" d="M17.5 35C27.165 35 35 27.165 35 17.5C35 7.83502 27.165 0 17.5 0C7.83502 0 0 7.83502 0 17.5C0 27.165 7.83502 35 17.5 35Z" fill="white"/>
<g id="Group 380">
<g id="mRUXWB.tif">
<g id="Group">
<path id="Vector_2" d="M17.7423 7.00069C18.2502 7.00069 18.7582 6.99913 19.2661 7.00069C19.756 7.00226 20.1038 7.33202 20.0999 7.78837C20.0967 8.23691 19.7521 8.55963 19.2723 8.56354C19.077 8.5651 18.8816 8.57057 18.6863 8.5612C18.5636 8.55573 18.5128 8.5862 18.5198 8.71983C18.5308 8.93394 18.5339 9.15039 18.519 9.36372C18.5081 9.51922 18.5706 9.56064 18.712 9.5747C19.8326 9.68645 20.886 10.0209 21.8784 10.5507C22.3332 10.7937 22.7629 11.075 23.1623 11.4001C23.2545 11.4751 23.3092 11.4743 23.3818 11.3853C23.4436 11.3102 23.5162 11.243 23.5889 11.1782C23.9038 10.8945 24.3719 10.9008 24.6673 11.1907C24.9642 11.4814 24.9806 11.9448 24.7024 12.2683C24.643 12.337 24.5821 12.4066 24.511 12.4628C24.4024 12.548 24.4172 12.616 24.5 12.716C25.19 13.5451 25.7136 14.4711 26.0402 15.4987C26.824 17.9664 26.5872 20.338 25.3299 22.6034C25.0994 23.0191 24.6321 23.1535 24.2437 22.9316C23.8577 22.7112 23.7397 22.2478 23.9749 21.8298C24.6423 20.6443 24.9603 19.373 24.9189 18.0141C24.8165 14.6211 22.2566 11.7088 18.9129 11.1766C14.9432 10.5452 11.2831 13.1935 10.6376 17.1631C10.0414 20.8327 12.4888 24.4374 16.1287 25.2516C18.0127 25.6728 19.7849 25.3845 21.447 24.4085C21.751 24.2295 22.0519 24.2076 22.3449 24.41C22.616 24.5976 22.7192 24.8687 22.6645 25.1946C22.6254 25.4266 22.4965 25.6009 22.2972 25.7212C20.7 26.684 18.9723 27.113 17.1109 26.9746C14.8213 26.8051 12.8889 25.8713 11.3253 24.1975C10.0453 22.8276 9.28262 21.1992 9.06616 19.3292C8.78016 16.8599 9.42171 14.6516 10.9846 12.7152C11.0689 12.6113 11.0689 12.5504 10.9697 12.4621C10.7611 12.2784 10.5829 12.0745 10.5829 11.7705C10.5829 11.4462 10.722 11.2024 11.008 11.0578C11.3018 10.9094 11.587 10.9461 11.8512 11.143C11.8613 11.1508 11.8707 11.1602 11.8808 11.168C12.002 11.261 12.0801 11.4634 12.2239 11.4509C12.3497 11.44 12.463 11.2852 12.5841 11.1977C13.8368 10.2874 15.2308 9.7388 16.7726 9.57626C16.9171 9.56142 16.9726 9.51453 16.9624 9.36215C16.9484 9.15508 16.9515 8.94566 16.9624 8.7378C16.9695 8.60574 16.9367 8.55182 16.7937 8.5612C16.6053 8.5737 16.4162 8.5651 16.2271 8.56432C15.7317 8.56198 15.3847 8.24159 15.3824 7.78681C15.3801 7.33046 15.727 7.00304 16.2185 7.00148C16.7265 6.99991 17.2344 7.00148 17.7423 7.00148V7.00069Z" fill="#B33F00"/>
<path id="Vector_3" d="M20.246 18.6611C19.5413 18.6611 18.8366 18.6618 18.1313 18.6611C17.6221 18.6604 17.3296 18.3668 17.3296 17.858C17.3296 16.4532 17.3296 15.0485 17.3296 13.6437C17.3296 13.1093 17.644 12.8099 18.1787 12.8318C20.6464 12.934 22.597 14.5958 23.0733 17.0037C23.1288 17.2848 23.155 17.5688 23.1601 17.855C23.1689 18.3486 22.8683 18.6589 22.3781 18.6604C21.6669 18.6625 20.9564 18.6604 20.2452 18.6604L20.246 18.6611Z" fill="#B33F00"/>
</g>
</g>
</g>
</g>
</g>
</svg>
