<svg width="17" height="24" viewBox="0 0 17 24" fill="none" xmlns="http://www.w3.org/2000/svg">
<g id="imago-parkimovil">
<path id="Vector" d="M12.9102 1.26327C11.6246 0.462697 10.1143 0 8.49895 0C4.95527 0 1.91993 2.22095 0.642778 5.3802C0.228963 6.40459 0 7.53013 0 8.70732C0 9.52296 0.10923 10.3128 0.315087 11.0617C0.315087 11.066 0.317188 11.0703 0.319288 11.0768C0.336093 11.137 0.352898 11.1973 0.371803 11.2554C0.439021 11.4878 0.50624 11.7224 0.57976 11.9548C1.31286 14.2984 2.30854 16.4806 3.52267 18.4799C3.85457 18.5294 4.19486 18.5552 4.54146 18.5552C5.94044 18.5552 7.2449 18.1356 8.33931 17.4125C8.99889 16.9778 9.56184 16.4548 10.0429 15.8264C10.0534 15.8156 10.0639 15.8027 10.0723 15.7898C10.0765 15.7855 10.0786 15.7812 10.0828 15.7769C10.1731 15.6564 10.0345 15.4627 9.89373 15.4928C9.42741 15.594 8.99679 15.637 8.50105 15.637C4.65489 15.637 1.53552 12.4412 1.53552 8.50072C1.53552 6.97059 2.00605 5.55237 2.80638 4.39024C4.06672 2.56098 6.1484 1.36442 8.50105 1.36442C12.2884 1.36442 15.3678 4.46126 15.4645 8.31564C15.4645 8.3759 15.4666 8.43831 15.4666 8.50072C15.4666 8.56313 15.4666 8.62339 15.4645 8.6858C15.4162 11.7633 14.1705 14.5438 12.1813 16.556C10.1857 18.5768 7.44026 19.825 4.41122 19.825C4.40282 19.825 4.39441 19.825 4.38811 19.825C5.25775 21.0947 6.21982 22.2805 7.26171 23.378C7.33943 23.4792 7.42765 23.5717 7.52638 23.6514C7.79316 23.8687 8.13345 24 8.50105 24C8.86865 24 9.22155 23.8644 9.49042 23.6385C9.57655 23.5653 9.65637 23.4835 9.72569 23.3931C12.7001 20.264 15.0297 16.3989 16.4181 11.957C16.4959 11.7073 16.5715 11.4555 16.6429 11.2059C16.6618 11.137 16.6828 11.066 16.7017 10.9971C16.895 10.2654 17 9.49713 17 8.70301C17 5.54806 15.3615 2.78479 12.9102 1.25897V1.26327ZM10.3223 8.17145H4.89645V12.5337H6.57482V9.73816H11.0911C11.8809 9.73816 12.3682 9.52726 12.5636 9.09469C12.6602 8.88379 12.7043 8.56098 12.7043 8.11765V6.76399C12.7043 6.34218 12.6728 6.03228 12.5846 5.83214C12.509 5.62123 12.3682 5.45552 12.1729 5.34362C11.9355 5.19943 11.5763 5.13271 11.089 5.13271H4.89225V6.78551H10.3181C10.7844 6.78551 11.0217 6.96198 11.0217 7.31922V7.62913C11.0217 7.99498 10.7844 8.1736 10.3181 8.1736L10.3223 8.17145Z" fill="#B33F00"/>
</g>
</svg>
