<svg width="125" height="36" viewBox="0 0 125 36" fill="none" xmlns="http://www.w3.org/2000/svg">
<path d="M33.4425 11.3519H30.4113C30.3094 11.3519 30.216 11.4085 30.1679 11.4991L27.8896 15.8491C27.85 15.9255 27.7764 15.9764 27.6943 15.9934L26.9047 16.1321C26.7349 16.1632 26.5821 16.033 26.5821 15.8604V6.74151C26.5821 6.58868 26.4575 6.46698 26.3075 6.46698H23.5849C23.4321 6.46698 23.3104 6.59151 23.3104 6.74151V23.2896C23.3104 23.4425 23.4349 23.5642 23.5849 23.5642H26.3075C26.4604 23.5642 26.5821 23.4396 26.5821 23.2896V19.2566C26.5821 19.1208 26.6811 19.0075 26.8141 18.9849L27.7283 18.8349C27.8472 18.8151 27.9632 18.8745 28.017 18.9792L30.3151 23.417C30.3632 23.5075 30.4566 23.567 30.5585 23.567H33.6264C33.833 23.567 33.966 23.3462 33.8698 23.1651L30.8019 17.2755C30.7594 17.1934 30.7594 17.0972 30.8019 17.0151L33.683 11.7623C33.7849 11.5783 33.6519 11.3547 33.4425 11.3547V11.3519ZM36.1623 23.567H38.8849C39.0377 23.567 39.1594 23.4425 39.1594 23.2925V11.6292C39.1594 11.4764 39.0349 11.3547 38.8849 11.3547H36.1623C36.0094 11.3547 35.8877 11.4792 35.8877 11.6292V23.2925C35.8877 23.4453 36.0123 23.567 36.1623 23.567ZM48.9321 11.3519C48.2472 11.1906 47.5566 11.1085 46.8547 11.1085C45.3066 11.1085 44.067 11.4594 43.1302 12.1585C42.1934 12.8575 41.7264 13.9868 41.7264 15.5406C41.7264 16.9981 42.2132 18.1245 43.1868 18.917C43.2972 19.0075 43.3283 19.1632 43.2519 19.2849L43.1698 19.4151C42.6802 20.1651 42.4368 20.7028 42.4368 21.0283C42.4368 21.733 42.6547 22.2849 43.0877 22.684C43.2066 22.7943 43.2094 22.9868 43.0877 23.0915C42.0858 23.9434 41.5849 24.8434 41.5849 25.7915C41.5849 27.0764 42.0774 27.9651 43.0623 28.4547C44.0472 28.9443 45.4566 29.1877 47.2877 29.1877C49.1189 29.1877 50.5736 28.8538 51.6491 28.1859C52.7245 27.5179 53.2623 26.4877 53.2623 25.0953C53.2623 23.7028 52.8887 22.7434 52.1387 22.2142C51.3887 21.6849 49.9877 21.4132 47.9358 21.3962C46.9113 21.3792 46.2575 21.3226 45.983 21.2264C45.7057 21.1274 45.567 20.9462 45.567 20.6774C45.567 20.4594 45.6208 20.1877 45.7283 19.8679C45.7708 19.7377 45.9038 19.6613 46.0368 19.6811C46.2717 19.7179 46.5292 19.7349 46.8123 19.7349C48.5868 19.7349 49.8915 19.4264 50.7207 18.8066C51.55 18.1868 51.966 17.0632 51.966 15.4359C51.966 15.0283 51.8698 14.6236 51.6745 14.216C51.5811 14.0208 51.7255 13.8 51.9406 13.817L52.9623 13.8991C53.1236 13.9132 53.2594 13.7858 53.2594 13.6245V11.5925C53.2594 11.4368 53.1321 11.3123 52.9764 11.3179L49.3566 11.4311C49.3368 11.4311 49.317 11.4311 49.2972 11.4255L48.9349 11.3575L48.9321 11.3519ZM47.6557 24.2236C47.6557 24.2236 47.667 24.2236 47.6698 24.2236C48.6094 24.2406 49.2264 24.3085 49.5179 24.4302C49.8123 24.5519 49.9566 24.8321 49.9566 25.2736C49.9566 26.0887 49.0962 26.4962 47.3783 26.4962C45.6604 26.4962 44.8 26.1453 44.8 25.4462C44.8 24.9934 44.9896 24.5604 45.366 24.15C45.4226 24.0877 45.5075 24.0566 45.5924 24.0623L47.65 24.2236H47.6557ZM46.8689 17.2387C45.6236 17.2387 45.0009 16.6415 45.0009 15.4443C45.0009 14.2472 45.6236 13.65 46.8689 13.65C48.1142 13.65 48.7368 14.2472 48.7368 15.4443C48.7368 16.6415 48.1142 17.2387 46.8689 17.2387ZM60.2189 11.0575C58.1981 11.0575 56.7575 11.6151 55.8943 12.7302C55.0311 13.8453 54.6009 15.4132 54.6009 17.434C54.6009 21.716 56.4745 23.8585 60.2189 23.8585C63.9632 23.8585 65.8368 21.716 65.8368 17.434C65.8368 15.416 65.4038 13.8481 64.5434 12.7302C63.6802 11.6151 62.2396 11.0575 60.2189 11.0575ZM62.0132 20.1934C61.6792 20.7792 61.0821 21.0736 60.2189 21.0736C59.3557 21.0736 58.7557 20.7792 58.4245 20.1934C58.0906 19.6075 57.9236 18.6877 57.9236 17.434C57.9236 16.1802 58.0906 15.2689 58.4245 14.6972C58.7585 14.1283 59.3557 13.8425 60.2189 13.8425C61.0821 13.8425 61.6792 14.1283 62.0132 14.6972C62.3472 15.266 62.5141 16.1802 62.5141 17.434C62.5141 18.6877 62.3472 19.6075 62.0132 20.1934ZM4.56321 23.4085H1.63962C1.28585 23.4085 1 23.6943 1 24.0481V26.9689C1 27.3226 1.28585 27.6085 1.63962 27.6085H4.56038C4.91415 27.6085 5.2 27.3226 5.2 26.9689V24.0481C5.2 23.6943 4.91415 23.4085 4.56038 23.4085H4.56321ZM17.7519 6.48679H1.61132C1.29434 6.48679 1.03396 6.74434 1.03396 7.06415V19.7462C1.03396 20.0632 1.29151 20.3236 1.61132 20.3236H7.3C7.61698 20.3236 7.87736 20.5811 7.87736 20.9009V23.1311C7.87736 23.4481 8.13491 23.7085 8.45472 23.7085H17.7547C18.0717 23.7085 18.3321 23.4509 18.3321 23.1311V7.06415C18.3321 6.74717 18.0745 6.48679 17.7547 6.48679H17.7519ZM14.8708 13.4038V19.667C14.8708 19.984 14.6132 20.2443 14.2934 20.2443H8.5283C8.21132 20.2443 7.95094 19.9868 7.95094 19.667V17.683C7.95094 17.366 8.20849 17.1057 8.5283 17.1057H10.9255C11.2425 17.1057 11.5028 16.8481 11.5028 16.5283V13.8849C11.5028 13.5679 11.2453 13.3075 10.9255 13.3075H8.28207C7.96509 13.3075 7.70472 13.5651 7.70472 13.8849V16.2821C7.70472 16.5991 7.44717 16.8594 7.12736 16.8594H5.06698C4.75 16.8594 4.48962 16.6019 4.48962 16.2821V10.517C4.48962 10.2 4.74717 9.93962 5.06698 9.93962H14.2906C14.6075 9.93962 14.8679 10.1972 14.8679 10.517V13.3981L14.8708 13.4038ZM39.25 4.17453H36.4792C36.134 4.17453 35.8538 4.45472 35.8538 4.8V7.57076C35.8538 7.91604 36.134 8.19623 36.4792 8.19623H39.25C39.5953 8.19623 39.8755 7.91604 39.8755 7.57076V4.8C39.8755 4.45472 39.5953 4.17453 39.25 4.17453ZM82.4075 36H82.6085C82.7613 36 82.883 35.8755 82.883 35.7255V0.274528C82.883 0.121698 82.7585 0 82.6085 0H82.4075C82.2547 0 82.133 0.124528 82.133 0.274528V35.7226C82.133 35.8755 82.2575 35.9972 82.4075 35.9972V36ZM118.756 2.97736C116.939 1.87359 114.808 1.23679 112.524 1.23679C107.517 1.23679 103.226 4.30189 101.424 8.65472C100.838 10.0698 100.515 11.6179 100.515 13.2453C100.515 14.3689 100.671 15.4585 100.959 16.4915C100.959 16.4972 100.962 16.5057 100.965 16.5113C100.988 16.5934 101.013 16.6755 101.039 16.7575C101.132 17.0802 101.231 17.4 101.333 17.7198C102.355 20.9094 103.736 23.8811 105.42 26.6066C105.465 26.6774 105.539 26.7255 105.621 26.7368C106.048 26.7934 106.484 26.8217 106.928 26.8217C108.907 26.8217 110.746 26.2415 112.294 25.2453C113.225 24.6453 114.021 23.9264 114.703 23.0575C114.717 23.0434 114.731 23.0264 114.742 23.0066C114.748 23.0009 114.751 22.9953 114.757 22.9896C114.884 22.8226 114.689 22.5566 114.491 22.5991C114.219 22.6557 113.956 22.7009 113.69 22.7321C108.394 23.3717 103.478 19.5991 102.774 14.3151C102.423 11.6887 103.108 9.23208 104.477 7.29057C106.258 4.76604 109.198 3.11887 112.521 3.11887C117.87 3.11887 122.223 7.38679 122.358 12.7047C122.358 12.7896 122.361 12.8745 122.361 12.9594C122.361 13.0443 122.361 13.1292 122.358 13.2142C122.291 17.4594 120.53 21.2915 117.72 24.0679C114.898 26.8557 111.024 28.5764 106.744 28.5764C106.733 28.5764 106.722 28.5764 106.71 28.5764C107.939 30.3283 109.3 31.9642 110.769 33.4755C110.876 33.617 111.004 33.7415 111.142 33.8519C111.522 34.1519 112 34.333 112.521 34.333C113.042 34.333 113.54 34.1462 113.919 33.8349C114.041 33.733 114.154 33.6198 114.253 33.4953C118.453 29.1792 121.747 23.85 123.708 17.7255C123.819 17.3802 123.924 17.0349 124.025 16.6896C124.054 16.5934 124.079 16.4972 124.108 16.4009C124.382 15.3934 124.529 14.3321 124.529 13.2368C124.529 8.88679 122.217 5.07736 118.753 2.96887L118.756 2.97736ZM115.099 12.5038H107.707C107.554 12.5038 107.432 12.6283 107.432 12.7783V18.2406C107.432 18.3934 107.557 18.5151 107.707 18.5151H109.526C109.679 18.5151 109.801 18.3906 109.801 18.2406V14.9349C109.801 14.7821 109.925 14.6604 110.075 14.6604H116.18C117.298 14.6604 117.986 14.3689 118.26 13.7717C118.399 13.4802 118.458 13.0359 118.458 12.4245V10.5566C118.458 9.97642 118.413 9.54623 118.292 9.2717C118.184 8.98019 117.986 8.75094 117.711 8.59811C117.375 8.4 116.871 8.3066 116.18 8.3066H107.704C107.551 8.3066 107.429 8.43113 107.429 8.58113V10.3104C107.429 10.4632 107.554 10.5849 107.704 10.5849H115.096C115.756 10.5849 116.09 10.8311 116.09 11.3208V11.7481C116.09 12.2519 115.753 12.4981 115.096 12.4981L115.099 12.5038Z" fill="#FF5A00"/>
</svg>
