<svg width="134" height="36" viewBox="0 0 134 36" fill="none" xmlns="http://www.w3.org/2000/svg">
<path d="M37.4425 11.3519H34.4113C34.3094 11.3519 34.216 11.4085 34.1679 11.4991L31.8896 15.8491C31.85 15.9255 31.7764 15.9764 31.6943 15.9934L30.9047 16.1321C30.7349 16.1632 30.5821 16.033 30.5821 15.8604V6.74151C30.5821 6.58868 30.4575 6.46698 30.3075 6.46698H27.5849C27.4321 6.46698 27.3104 6.59151 27.3104 6.74151V23.2896C27.3104 23.4425 27.4349 23.5642 27.5849 23.5642H30.3075C30.4604 23.5642 30.5821 23.4396 30.5821 23.2896V19.2566C30.5821 19.1208 30.6811 19.0075 30.8141 18.9849L31.7283 18.8349C31.8472 18.8151 31.9632 18.8745 32.017 18.9792L34.3151 23.417C34.3632 23.5075 34.4566 23.567 34.5585 23.567H37.6264C37.833 23.567 37.966 23.3462 37.8698 23.1651L34.8019 17.2755C34.7594 17.1934 34.7594 17.0972 34.8019 17.0151L37.683 11.7623C37.7849 11.5783 37.6519 11.3547 37.4425 11.3547V11.3519ZM40.1623 23.567H42.8849C43.0377 23.567 43.1594 23.4425 43.1594 23.2925V11.6292C43.1594 11.4764 43.0349 11.3547 42.8849 11.3547H40.1623C40.0094 11.3547 39.8877 11.4792 39.8877 11.6292V23.2925C39.8877 23.4453 40.0123 23.567 40.1623 23.567ZM52.9321 11.3519C52.2472 11.1906 51.5566 11.1085 50.8547 11.1085C49.3066 11.1085 48.067 11.4594 47.1302 12.1585C46.1934 12.8575 45.7264 13.9868 45.7264 15.5406C45.7264 16.9981 46.2132 18.1245 47.1868 18.917C47.2972 19.0075 47.3283 19.1632 47.2519 19.2849L47.1698 19.4151C46.6802 20.1651 46.4368 20.7028 46.4368 21.0283C46.4368 21.733 46.6547 22.2849 47.0877 22.684C47.2066 22.7943 47.2094 22.9868 47.0877 23.0915C46.0858 23.9434 45.5849 24.8434 45.5849 25.7915C45.5849 27.0764 46.0774 27.9651 47.0623 28.4547C48.0472 28.9443 49.4566 29.1877 51.2877 29.1877C53.1189 29.1877 54.5736 28.8538 55.6491 28.1859C56.7245 27.5179 57.2623 26.4877 57.2623 25.0953C57.2623 23.7028 56.8887 22.7434 56.1387 22.2142C55.3887 21.6849 53.9877 21.4132 51.9358 21.3962C50.9113 21.3792 50.2575 21.3226 49.983 21.2264C49.7057 21.1274 49.567 20.9462 49.567 20.6774C49.567 20.4594 49.6208 20.1877 49.7283 19.8679C49.7708 19.7377 49.9038 19.6613 50.0368 19.6811C50.2717 19.7179 50.5292 19.7349 50.8123 19.7349C52.5868 19.7349 53.8915 19.4264 54.7207 18.8066C55.55 18.1868 55.966 17.0632 55.966 15.4359C55.966 15.0283 55.8698 14.6236 55.6745 14.216C55.5811 14.0208 55.7255 13.8 55.9406 13.817L56.9623 13.8991C57.1236 13.9132 57.2594 13.7858 57.2594 13.6245V11.5925C57.2594 11.4368 57.1321 11.3123 56.9764 11.3179L53.3566 11.4311C53.3368 11.4311 53.317 11.4311 53.2972 11.4255L52.9349 11.3575L52.9321 11.3519ZM51.6557 24.2236C51.6557 24.2236 51.667 24.2236 51.6698 24.2236C52.6094 24.2406 53.2264 24.3085 53.5179 24.4302C53.8123 24.5519 53.9566 24.8321 53.9566 25.2736C53.9566 26.0887 53.0962 26.4962 51.3783 26.4962C49.6604 26.4962 48.8 26.1453 48.8 25.4462C48.8 24.9934 48.9896 24.5604 49.366 24.15C49.4226 24.0877 49.5075 24.0566 49.5924 24.0623L51.65 24.2236H51.6557ZM50.8689 17.2387C49.6236 17.2387 49.0009 16.6415 49.0009 15.4443C49.0009 14.2472 49.6236 13.65 50.8689 13.65C52.1142 13.65 52.7368 14.2472 52.7368 15.4443C52.7368 16.6415 52.1142 17.2387 50.8689 17.2387ZM64.2189 11.0575C62.1981 11.0575 60.7575 11.6151 59.8943 12.7302C59.0311 13.8453 58.6009 15.4132 58.6009 17.434C58.6009 21.716 60.4745 23.8585 64.2189 23.8585C67.9632 23.8585 69.8368 21.716 69.8368 17.434C69.8368 15.416 69.4038 13.8481 68.5434 12.7302C67.6802 11.6151 66.2396 11.0575 64.2189 11.0575ZM66.0132 20.1934C65.6792 20.7792 65.0821 21.0736 64.2189 21.0736C63.3557 21.0736 62.7557 20.7792 62.4245 20.1934C62.0906 19.6075 61.9236 18.6877 61.9236 17.434C61.9236 16.1802 62.0906 15.2689 62.4245 14.6972C62.7585 14.1283 63.3557 13.8425 64.2189 13.8425C65.0821 13.8425 65.6792 14.1283 66.0132 14.6972C66.3472 15.266 66.5141 16.1802 66.5141 17.434C66.5141 18.6877 66.3472 19.6075 66.0132 20.1934ZM8.56321 23.4085H5.63962C5.28585 23.4085 5 23.6943 5 24.0481V26.9689C5 27.3226 5.28585 27.6085 5.63962 27.6085H8.56038C8.91415 27.6085 9.2 27.3226 9.2 26.9689V24.0481C9.2 23.6943 8.91415 23.4085 8.56038 23.4085H8.56321ZM21.7519 6.48679H5.61132C5.29434 6.48679 5.03396 6.74434 5.03396 7.06415V19.7462C5.03396 20.0632 5.29151 20.3236 5.61132 20.3236H11.3C11.617 20.3236 11.8774 20.5811 11.8774 20.9009V23.1311C11.8774 23.4481 12.1349 23.7085 12.4547 23.7085H21.7547C22.0717 23.7085 22.3321 23.4509 22.3321 23.1311V7.06415C22.3321 6.74717 22.0745 6.48679 21.7547 6.48679H21.7519ZM18.8708 13.4038V19.667C18.8708 19.984 18.6132 20.2443 18.2934 20.2443H12.5283C12.2113 20.2443 11.9509 19.9868 11.9509 19.667V17.683C11.9509 17.366 12.2085 17.1057 12.5283 17.1057H14.9255C15.2425 17.1057 15.5028 16.8481 15.5028 16.5283V13.8849C15.5028 13.5679 15.2453 13.3075 14.9255 13.3075H12.2821C11.9651 13.3075 11.7047 13.5651 11.7047 13.8849V16.2821C11.7047 16.5991 11.4472 16.8594 11.1274 16.8594H9.06698C8.75 16.8594 8.48962 16.6019 8.48962 16.2821V10.517C8.48962 10.2 8.74717 9.93962 9.06698 9.93962H18.2906C18.6075 9.93962 18.8679 10.1972 18.8679 10.517V13.3981L18.8708 13.4038ZM43.25 4.17453H40.4792C40.134 4.17453 39.8538 4.45472 39.8538 4.8V7.57076C39.8538 7.91604 40.134 8.19623 40.4792 8.19623H43.25C43.5953 8.19623 43.8755 7.91604 43.8755 7.57076V4.8C43.8755 4.45472 43.5953 4.17453 43.25 4.17453ZM86.4075 36H86.6085C86.7613 36 86.883 35.8755 86.883 35.7255V0.274528C86.883 0.121698 86.7585 0 86.6085 0H86.4075C86.2547 0 86.133 0.124528 86.133 0.274528V35.7226C86.133 35.8755 86.2575 35.9972 86.4075 35.9972V36ZM122.756 2.97736C120.939 1.87359 118.808 1.23679 116.524 1.23679C111.517 1.23679 107.226 4.30189 105.424 8.65472C104.838 10.0698 104.515 11.6179 104.515 13.2453C104.515 14.3689 104.671 15.4585 104.959 16.4915C104.959 16.4972 104.962 16.5057 104.965 16.5113C104.988 16.5934 105.013 16.6755 105.039 16.7575C105.132 17.0802 105.231 17.4 105.333 17.7198C106.355 20.9094 107.736 23.8811 109.42 26.6066C109.465 26.6774 109.539 26.7255 109.621 26.7368C110.048 26.7934 110.484 26.8217 110.928 26.8217C112.907 26.8217 114.746 26.2415 116.294 25.2453C117.225 24.6453 118.021 23.9264 118.703 23.0575C118.717 23.0434 118.731 23.0264 118.742 23.0066C118.748 23.0009 118.751 22.9953 118.757 22.9896C118.884 22.8226 118.689 22.5566 118.491 22.5991C118.219 22.6557 117.956 22.7009 117.69 22.7321C112.394 23.3717 107.478 19.5991 106.774 14.3151C106.423 11.6887 107.108 9.23208 108.477 7.29057C110.258 4.76604 113.198 3.11887 116.521 3.11887C121.87 3.11887 126.223 7.38679 126.358 12.7047C126.358 12.7896 126.361 12.8745 126.361 12.9594C126.361 13.0443 126.361 13.1292 126.358 13.2142C126.291 17.4594 124.53 21.2915 121.72 24.0679C118.898 26.8557 115.024 28.5764 110.744 28.5764C110.733 28.5764 110.722 28.5764 110.71 28.5764C111.939 30.3283 113.3 31.9642 114.769 33.4755C114.876 33.617 115.004 33.7415 115.142 33.8519C115.522 34.1519 116 34.333 116.521 34.333C117.042 34.333 117.54 34.1462 117.919 33.8349C118.041 33.733 118.154 33.6198 118.253 33.4953C122.453 29.1792 125.747 23.85 127.708 17.7255C127.819 17.3802 127.924 17.0349 128.025 16.6896C128.054 16.5934 128.079 16.4972 128.108 16.4009C128.382 15.3934 128.529 14.3321 128.529 13.2368C128.529 8.88679 126.217 5.07736 122.753 2.96887L122.756 2.97736ZM119.099 12.5038H111.707C111.554 12.5038 111.432 12.6283 111.432 12.7783V18.2406C111.432 18.3934 111.557 18.5151 111.707 18.5151H113.526C113.679 18.5151 113.801 18.3906 113.801 18.2406V14.9349C113.801 14.7821 113.925 14.6604 114.075 14.6604H120.18C121.298 14.6604 121.986 14.3689 122.26 13.7717C122.399 13.4802 122.458 13.0359 122.458 12.4245V10.5566C122.458 9.97642 122.413 9.54623 122.292 9.2717C122.184 8.98019 121.986 8.75094 121.711 8.59811C121.375 8.4 120.871 8.3066 120.18 8.3066H111.704C111.551 8.3066 111.429 8.43113 111.429 8.58113V10.3104C111.429 10.4632 111.554 10.5849 111.704 10.5849H119.096C119.756 10.5849 120.09 10.8311 120.09 11.3208V11.7481C120.09 12.2519 119.753 12.4981 119.096 12.4981L119.099 12.5038Z" fill="white"/>
</svg>
