<svg width="36" height="36" viewBox="0 0 36 36" fill="none" xmlns="http://www.w3.org/2000/svg">
<g id="Group">
<path id="Vector" d="M15.5381 8.77115C15.5381 7.40414 14.4309 6.29693 13.0639 6.29693C11.6969 6.29693 10.5897 7.40414 10.5897 8.77115C10.5897 10.1382 11.6969 11.2454 13.0639 11.2454C14.4309 11.2454 15.5381 10.1382 15.5381 8.77115ZM11.8268 8.77115C11.8268 8.09074 12.3835 7.53404 13.0639 7.53404C13.7443 7.53404 14.301 8.09074 14.301 8.77115C14.301 9.45156 13.7443 10.0083 13.0639 10.0083C12.3835 10.0083 11.8268 9.45156 11.8268 8.77115ZM27.569 8.15878H27.2412H24.1979H18.5938C18.2845 5.38146 15.9216 3.21033 13.0639 3.21033C10.2062 3.21033 7.84327 5.38146 7.53399 8.15878V8.37528C6.81028 8.71548 6.29688 9.44538 6.29688 10.299V30.6619C6.29688 31.8433 7.25564 32.8021 8.43708 32.8021H27.569C28.7505 32.8021 29.7092 31.8433 29.7092 30.6619V10.2928C29.7092 9.11136 28.7505 8.1526 27.569 8.1526V8.15878ZM13.0639 4.44125C15.4515 4.44125 17.3938 6.38352 17.3938 8.77115C17.3938 10.6145 14.6041 14.5114 13.0639 16.4474C11.5237 14.5114 8.73399 10.6145 8.73399 8.77115C8.73399 6.38352 10.6763 4.44125 13.0639 4.44125ZM7.5278 10.2928C7.5278 10.1196 7.57729 9.95878 7.66389 9.8227C8.47419 12.8227 12.1237 17.2701 12.5876 17.8268C12.7051 17.9691 12.8783 18.0495 13.0639 18.0495C13.2495 18.0495 13.4226 17.9691 13.5402 17.8268C14.0288 17.2454 18.0309 12.3773 18.569 9.38971H19.868V19.2866H7.5278V10.2928ZM8.43708 31.5588C7.93605 31.5588 7.5278 31.1505 7.5278 30.6495V24.2289H13.2123L15.3031 31.5588H8.4309H8.43708ZM28.4721 30.6495C28.4721 31.1505 28.0639 31.5588 27.5629 31.5588H20.301L18.2103 24.2289H28.4659V22.9918H17.3876C17.1958 22.9918 17.0103 23.0846 16.8928 23.2392C16.7752 23.3938 16.7381 23.598 16.7938 23.7835L19.0144 31.5588H16.5897L14.2701 23.4433C14.1958 23.1773 13.9484 22.9918 13.6763 22.9918H7.52162V20.5175H20.4804C20.8206 20.5175 21.0989 20.2392 21.0989 19.899V9.38971H23.5732V19.9052C23.5732 20.2454 23.8515 20.5237 24.1917 20.5237H28.4659V19.2866H24.8103V9.38971H27.235H27.5629C28.0639 9.38971 28.4721 9.79796 28.4721 10.299V30.6619V30.6495Z" fill="#B5B5B5"/>
</g>
</svg>
