<svg width="22" height="29" viewBox="0 0 22 29" fill="none" xmlns="http://www.w3.org/2000/svg">
<g id="Capa_1" clip-path="url(#clip0_1_294)">
<path id="Vector" d="M20.9272 21.2699L20.0974 20.4909C20.0153 20.4201 19.9697 20.3138 19.9697 20.2076V12.7626C19.9697 9.13307 17.7447 5.98156 14.5896 4.60941C14.6079 4.53859 14.6352 4.46777 14.6352 4.3881C14.6352 2.49365 13.0486 0.944458 11.088 0.944458C9.12749 0.944458 7.54082 2.4848 7.54082 4.3881C7.54082 4.45892 7.56817 4.52089 7.58641 4.58286C6.59246 4.99893 5.67147 5.5832 4.86901 6.34452C3.15468 7.98224 2.20633 10.16 2.20633 12.497V20.1988C2.20633 20.305 2.16073 20.4112 2.07867 20.482L1.24886 21.2611C0.592303 21.8807 0.382571 22.8103 0.729085 23.6336C1.0756 24.4568 1.88717 24.988 2.79905 24.988H6.40097C6.92986 27.0329 8.81745 28.5556 11.088 28.5556C13.3586 28.5556 15.2462 27.0329 15.7751 24.988H19.377C20.2889 24.988 21.1005 24.4568 21.447 23.6336C21.7935 22.8103 21.5837 21.8807 20.9272 21.2611V21.2699ZM11.0971 2.71497C11.927 2.71497 12.62 3.29038 12.7841 4.0517C12.2917 3.95433 11.7811 3.89236 11.2613 3.88351C10.6321 3.88351 10.012 3.93662 9.41017 4.04285C9.57431 3.29038 10.2673 2.71497 11.0971 2.71497ZM11.0971 26.7851C9.84787 26.7851 8.77185 26.0414 8.31591 24.988H13.8784C13.4224 26.0414 12.3464 26.7851 11.0971 26.7851ZM19.76 22.9696C19.7235 23.0581 19.6232 23.2175 19.3861 23.2175H2.80817C2.57108 23.2175 2.47077 23.0581 2.4343 22.9696C2.39782 22.8811 2.36135 22.6952 2.52549 22.5358L3.3553 21.7568C3.793 21.3496 4.0392 20.783 4.0392 20.1988V12.497C4.0392 10.6469 4.78694 8.9029 6.15476 7.61043C7.48611 6.34452 9.23691 5.64516 11.0971 5.64516C11.1427 5.64516 11.1883 5.64516 11.2339 5.64516C15.0547 5.71598 18.1551 8.9029 18.1551 12.7538V20.1988C18.1551 20.783 18.4013 21.3496 18.839 21.7568L19.6688 22.5358C19.8421 22.6952 19.8056 22.8722 19.76 22.9696Z" fill="white"/>
</g>
<defs>
<clipPath id="clip0_1_294">
<rect width="21.037" height="27.6111" fill="white" transform="translate(0.574097 0.944458)"/>
</clipPath>
</defs>
</svg>
