<svg width="25" height="34" viewBox="0 0 25 34" fill="none" xmlns="http://www.w3.org/2000/svg">
<g id="Capa_1" clip-path="url(#clip0_1_278)">
<path id="Vector" d="M11.1432 27.334C11.0202 27.6683 10.9051 27.9726 10.7963 28.2801C10.5787 28.8824 10.2428 29.4186 9.86438 29.9279C9.70197 30.1471 9.52378 30.3615 9.32825 30.5508C9.01288 30.8535 8.68016 31.1389 8.34744 31.4228C8.27333 31.4858 8.16925 31.5268 8.07149 31.5505C7.77031 31.6278 7.47701 31.4953 7.3414 31.2335C7.20264 30.9639 7.26887 30.5713 7.51959 30.4025C7.92169 30.1313 8.25283 29.7891 8.57766 29.4359C8.98922 28.9897 9.30617 28.4819 9.53797 27.9174C9.69724 27.5279 9.83442 27.1353 9.89434 26.7174C9.92746 26.4856 9.99211 26.2522 9.98265 26.022C9.96373 25.5379 10.0489 25.0648 10.112 24.5902C10.1798 24.0856 10.2507 23.581 10.4526 23.1048C10.6024 22.7484 10.7064 22.3731 10.8673 22.0231C11.0455 21.6352 11.2599 21.263 11.4665 20.8877C11.6447 20.5661 11.8307 20.2507 12.0215 19.9369C12.1698 19.6925 12.3148 19.4449 12.4836 19.2147C12.8005 18.7842 13.0765 18.3301 13.272 17.8349C13.5054 17.2452 13.5196 16.6286 13.2956 16.0341C13.1332 15.6021 12.6428 15.5106 12.3795 15.8071C12.1571 16.0578 11.9474 16.3211 11.744 16.5876C11.3025 17.1616 10.8657 17.7387 10.4336 18.319C10.0142 18.882 9.60893 19.4575 9.18633 20.0173C8.78265 20.5534 8.35848 21.077 7.95165 21.6115C7.68043 21.9679 7.4234 22.3369 7.15533 22.698C6.78477 23.1978 6.41105 23.6946 6.03418 24.1897C5.82919 24.4578 5.41447 24.5003 5.15587 24.2922C4.84207 24.0399 4.79319 23.6788 5.01868 23.3776C5.31828 22.9771 5.60685 22.5687 5.90645 22.1697C6.20133 21.7787 6.50882 21.3986 6.80211 21.0076C7.05441 20.6733 7.29567 20.3327 7.53851 19.9921C7.57162 19.9463 7.58424 19.8801 7.58897 19.8218C7.59685 19.7303 7.59212 19.6373 7.59212 19.5458C7.59212 14.0173 7.59212 8.48728 7.59212 2.95879C7.59212 2.59769 7.62839 2.2429 7.764 1.90702C8.00999 1.2952 8.42786 0.852101 9.03022 0.558805C9.39132 0.380619 9.75716 0.333313 10.1498 0.333313C13.9895 0.338044 17.8291 0.333313 21.6688 0.338044C22.6748 0.33962 23.3986 0.84264 23.8464 1.71622C24.0246 2.06156 24.1271 2.44946 24.1255 2.85945C24.1192 10.1698 24.1224 17.4817 24.1192 24.7921C24.1192 25.6373 23.7849 26.339 23.1211 26.8688C22.7158 27.1905 22.2491 27.3371 21.7271 27.3355C19.2089 27.3308 16.6891 27.334 14.1708 27.334C13.2799 27.334 12.3889 27.334 11.498 27.334C11.3861 27.334 11.2741 27.334 11.1416 27.334H11.1432ZM11.3293 26.0788C11.4665 26.0788 11.5879 26.0788 11.7093 26.0788C14.904 26.0788 18.0988 26.0788 21.2935 26.0756C21.4969 26.0756 21.7003 26.0488 21.9006 26.0173C22.2727 25.9574 22.7016 25.5915 22.76 25.1263C22.7757 24.9955 22.7694 24.8599 22.7694 24.7274C22.7694 17.477 22.7694 10.2281 22.7694 2.97771C22.7694 2.88626 22.7757 2.79322 22.7663 2.70176C22.7253 2.24605 22.5093 1.91491 22.0725 1.74303C21.8123 1.64053 21.5489 1.58061 21.2667 1.5885C20.8062 1.60111 20.3458 1.59165 19.8838 1.59323C19.7939 1.59323 19.704 1.60269 19.6047 1.60742C19.3524 2.10729 19.1017 2.59454 18.862 3.08809C18.7201 3.38139 18.5135 3.54854 18.1729 3.54696C16.626 3.54223 15.0807 3.54065 13.5337 3.54696C13.1758 3.54696 12.9629 3.36089 12.8147 3.07075C12.6334 2.71595 12.4678 2.35328 12.288 1.99848C12.2186 1.86287 12.1303 1.7383 12.0405 1.59165H11.7661C11.2741 1.59165 10.7837 1.59638 10.2917 1.59007C9.99526 1.58692 9.72247 1.67049 9.4749 1.81083C9.20368 1.96537 8.97976 2.17824 8.93561 2.51569C8.91511 2.66707 8.89461 2.81845 8.89461 2.97141C8.89146 5.96114 8.89304 8.95088 8.89304 11.9406C8.89304 13.8959 8.89304 15.8528 8.89461 17.8081C8.89461 17.909 8.86465 18.021 8.94192 18.1377C9.15637 17.8554 9.35348 17.5984 9.54901 17.3382C10.1246 16.5703 10.7001 15.8024 11.2757 15.0344C11.6478 14.5377 12.1839 14.3469 12.7642 14.3201C13.1411 14.3028 13.5117 14.4573 13.8239 14.678C14.1803 14.9319 14.4373 15.2741 14.5556 15.7062C14.7322 16.3448 14.7747 16.9866 14.6817 17.6473C14.6044 18.1976 14.4042 18.6943 14.1188 19.1548C13.6899 19.847 13.2121 20.5077 12.7895 21.2031C12.4725 21.7251 12.1729 22.2659 11.9317 22.8257C11.7314 23.2893 11.5658 23.7766 11.4791 24.2811C11.4444 24.4814 11.4113 24.6833 11.3908 24.8867C11.3529 25.2415 11.3246 25.5963 11.2962 25.951C11.2946 25.9794 11.3119 26.0078 11.3324 26.0788H11.3293ZM18.083 1.60742H13.57C13.6189 1.73199 13.6504 1.83922 13.7009 1.93698C13.8113 2.14513 13.9563 2.25709 14.2276 2.25236C15.3014 2.23186 16.3768 2.24447 17.4507 2.2429C17.8228 2.2429 17.878 2.20663 18.012 1.85499C18.0404 1.78087 18.0562 1.70203 18.0814 1.60742H18.083Z" fill="white"/>
<path id="Vector_2" d="M0.890514 27.9394C0.890514 26.3437 0.890514 24.7463 0.890514 23.1505C0.890514 22.6696 0.989856 22.2091 1.12547 21.7439C1.33677 21.0123 1.75148 20.3973 2.12678 19.7571C2.32231 19.4228 2.51784 19.0885 2.7181 18.7574C3.02401 18.2528 3.33623 17.7513 3.6453 17.2483C3.76829 17.048 3.89129 16.8494 4.00955 16.6475C4.30916 16.1366 4.60718 15.6257 4.90679 15.1148C5.02032 14.9209 5.13543 14.7285 5.25843 14.5408C5.40981 14.3106 5.7441 14.205 6.01848 14.2917C6.24712 14.3642 6.44423 14.6181 6.43161 14.8783C6.42373 15.036 6.39219 15.211 6.31335 15.345C5.79772 16.2123 5.26158 17.067 4.74122 17.9327C4.31073 18.6486 3.89286 19.3739 3.46711 20.093C3.21797 20.514 2.95936 20.9287 2.71337 21.3513C2.61718 21.5185 2.52572 21.6919 2.46422 21.8733C2.28762 22.3857 2.18354 22.9061 2.1867 23.4596C2.20246 26.5802 2.193 29.7024 2.19458 32.823C2.19458 33.0201 2.18827 33.2093 2.07947 33.3844C1.93124 33.6225 1.67579 33.7187 1.35254 33.6477C1.11916 33.5957 0.918898 33.3765 0.893668 33.1305C0.88263 33.0296 0.88736 32.9255 0.88736 32.823C0.88736 31.1957 0.88736 29.5683 0.88736 27.941L0.890514 27.9394Z" fill="white"/>
<path id="Vector_3" d="M12.4221 32.2617C12.4521 31.8549 12.4395 31.4401 12.5246 31.0459C12.6019 30.6864 12.6949 30.3206 12.9299 30.0052C13.2011 29.6378 13.4282 29.2373 13.6757 28.8525C13.8129 28.6412 13.9974 28.5229 14.2623 28.5308C14.6313 28.5419 14.9356 28.862 14.9104 29.2294C14.9073 29.2704 14.9104 29.3161 14.8915 29.3492C14.7322 29.6204 14.5761 29.8932 14.4058 30.1566C14.0826 30.6533 13.7341 31.1327 13.7987 31.7807C13.8303 32.0945 13.7893 32.4146 13.8082 32.7316C13.8224 32.9665 13.7514 33.17 13.6615 33.3765C13.5874 33.5453 13.4613 33.6225 13.2862 33.6509C12.728 33.7424 12.4347 33.3797 12.4473 32.9066C12.4537 32.6922 12.4473 32.4777 12.4473 32.2617H12.4221Z" fill="white"/>
<path id="Vector_4" d="M12.3464 12.4515C11.8749 12.4515 11.405 12.4547 10.9335 12.4515C10.5819 12.4484 10.2965 12.1661 10.2949 11.8145C10.2917 10.8731 10.3075 9.93013 10.287 8.99032C10.2791 8.60714 10.6008 8.28389 10.9745 8.27758C11.9159 8.26023 12.8573 8.26496 13.7987 8.276C14.1346 8.27915 14.4689 8.61345 14.472 8.9509C14.4815 9.89229 14.483 10.8337 14.472 11.7751C14.4673 12.1898 14.1756 12.45 13.7593 12.4515C13.2878 12.4547 12.8179 12.4515 12.3464 12.4515ZM13.1033 9.64472H11.6368C11.569 9.94905 11.5753 10.9441 11.6431 11.1774H13.1049V9.64472H13.1033Z" fill="white"/>
<path id="Vector_5" d="M19.3066 12.4515C18.8462 12.4515 18.3857 12.4374 17.9253 12.4563C17.5815 12.4705 17.3166 12.2765 17.2473 11.8918C17.2315 11.8019 17.2331 11.7088 17.2331 11.6174C17.2331 10.7895 17.2331 9.9601 17.2331 9.13224C17.2331 9.07075 17.2315 9.00925 17.2346 8.94775C17.263 8.5488 17.5232 8.27916 17.9285 8.27443C18.8493 8.26497 19.7702 8.24605 20.6895 8.28231C21.1531 8.29966 21.4086 8.57246 21.4149 8.99979C21.4275 9.90964 21.4259 10.8211 21.4117 11.7309C21.4102 11.8854 21.3518 12.0573 21.2683 12.1882C21.1484 12.3759 20.9545 12.4626 20.7164 12.4579C20.2464 12.4468 19.775 12.4547 19.3051 12.4547L19.3066 12.4515ZM20.0982 9.64315H18.5592V11.1774H20.0982V9.64315Z" fill="white"/>
<path id="Vector_6" d="M19.3461 15.2615C19.816 15.2615 20.2875 15.2583 20.7574 15.2615C21.0743 15.2646 21.2967 15.4397 21.3692 15.7472C21.3976 15.8654 21.4181 15.9884 21.4196 16.1083C21.4244 16.9267 21.4244 17.7451 21.4196 18.5634C21.4196 18.7889 21.396 19.0081 21.2241 19.1879C21.0964 19.3219 20.9513 19.3976 20.7653 19.3976C19.8034 19.3976 18.8415 19.4039 17.8812 19.3945C17.487 19.3913 17.2615 19.1437 17.2362 18.7227C17.2252 18.5288 17.2331 18.3348 17.2331 18.1393C17.2331 17.4328 17.2331 16.728 17.2331 16.0215C17.2331 15.9206 17.2378 15.815 17.2646 15.7188C17.3561 15.4034 17.5406 15.2631 17.8686 15.2599C18.359 15.2552 18.8509 15.2599 19.3413 15.2599L19.3461 15.2615ZM18.5576 18.0715H20.0919V16.5183C19.5653 16.5198 19.0622 16.5104 18.5576 16.5246V18.0699V18.0715Z" fill="white"/>
<path id="Vector_7" d="M16.5062 14.5362C16.5062 14.6891 16.5062 14.7979 16.5062 14.9083C16.5062 15.9017 16.5078 16.8936 16.5046 17.887C16.5046 18.0179 16.4684 18.1503 16.4652 18.2812C16.4589 18.5698 16.0694 18.7921 15.8108 18.7606C15.3756 18.707 15.199 18.4499 15.2006 18.1614C15.2085 16.7185 15.2006 15.2757 15.2053 13.8329C15.2053 13.497 15.4828 13.2116 15.8155 13.1848C15.866 13.1801 15.918 13.1848 15.9685 13.1848C17.3088 13.1848 18.6492 13.1848 19.9911 13.1864C20.1109 13.1864 20.2418 13.1942 20.349 13.24C20.7432 13.4071 20.9009 13.8707 20.666 14.2318C20.5383 14.4289 20.3207 14.5393 20.0668 14.5393C19.5038 14.5377 18.9409 14.5393 18.378 14.5393C17.8765 14.5393 17.3751 14.5393 16.8736 14.5393H16.5078L16.5062 14.5362Z" fill="white"/>
<path id="Vector_8" d="M15.2037 10.3621C15.2037 9.9017 15.2163 9.44125 15.1989 8.98081C15.1863 8.65913 15.3803 8.39106 15.7713 8.28383C16 8.22076 16.3706 8.46044 16.4399 8.71116C16.4794 8.85781 16.503 9.01234 16.5046 9.16372C16.5109 9.98212 16.5077 10.8005 16.5077 11.6189C16.5077 11.8917 16.4683 12.1472 16.2271 12.3285C16.0268 12.4799 15.7997 12.5004 15.59 12.4073C15.3708 12.3096 15.2052 12.1393 15.2052 11.8649C15.2068 11.3634 15.2052 10.862 15.2052 10.3606L15.2037 10.3621Z" fill="white"/>
</g>
<defs>
<clipPath id="clip0_1_278">
<rect width="23.2382" height="33.3333" fill="white" transform="translate(0.888916 0.333313)"/>
</clipPath>
</defs>
</svg>
