<svg width="36" height="36" viewBox="0 0 36 36" fill="none" xmlns="http://www.w3.org/2000/svg">
<g id="Group 296">
<path id="Vector" d="M28.701 6.42063C28.6268 6.09898 28.3361 5.87012 28.0082 5.87012H8.15873C7.8309 5.87012 7.54017 6.09898 7.46595 6.42063L5.54224 16.7753C5.66595 17.6598 6.16079 18.433 6.87832 18.9031C6.87832 18.9093 6.87832 18.9217 6.87832 18.9279V29.4062C6.87832 29.8021 7.19997 30.1175 7.58966 30.1175H28.5897C28.9855 30.1175 29.301 29.7959 29.301 29.4062V18.934C29.9196 18.4577 30.3525 17.7526 30.4639 16.9423L28.7072 6.41445L28.701 6.42063ZM23.4495 7.2928L24.3525 16.4846C24.3525 17.3815 23.6227 18.1114 22.7257 18.1114C21.8288 18.1114 21.0556 17.3815 21.0556 16.4846L20.7958 7.2928H23.4495ZM16.7196 7.2928H19.3732L19.6268 16.4474C19.6268 17.3443 18.8969 18.0681 18 18.0681C17.1031 18.0681 16.3732 17.3382 16.3732 16.4413L16.7196 7.2928ZM12.6495 7.2928H15.2969L14.901 16.398C14.901 17.2949 14.1711 18.0248 13.2742 18.0248C12.3773 18.0248 11.6226 17.301 11.6226 16.4041V16.2681L12.6495 7.2928ZM6.93399 16.4413L8.72162 7.2928H11.2144L10.1814 16.3485C10.1814 16.3485 10.1814 16.3547 10.1814 16.3608C10.1814 16.3856 10.1814 16.4041 10.1752 16.4289V16.4474C10.1257 17.301 9.42677 17.9876 8.55461 17.9876C7.68244 17.9876 6.98347 17.301 6.93399 16.4474V16.4413ZM27.8721 28.6949H8.29481V19.3794C8.38141 19.3856 8.46182 19.4041 8.54842 19.4041C9.49481 19.4041 10.3361 18.9588 10.8928 18.2784C11.4495 18.9835 12.3031 19.4413 13.2742 19.4413C14.2453 19.4413 15.0618 18.9959 15.6185 18.3155C16.1752 19.0206 17.0288 19.4784 18 19.4784C18.9711 19.4784 19.7876 19.033 20.3443 18.3526C20.901 19.0577 21.7546 19.5155 22.7257 19.5155C23.6969 19.5155 24.5134 19.0701 25.0701 18.3897C25.6268 19.0949 26.4804 19.5526 27.4515 19.5526C27.5938 19.5526 27.736 19.5279 27.8783 19.5093V28.6763L27.8721 28.6949ZM27.4453 18.1485C26.5484 18.1485 25.8185 17.4186 25.8185 16.5217L24.8783 7.28661H27.4453L29.0659 16.5897C29.0288 17.4557 28.3175 18.1485 27.4453 18.1485ZM25.2 23.2144H10.1319C9.73605 23.2144 9.42059 23.5361 9.42059 23.9258C9.42059 24.3155 9.74224 24.6371 10.1319 24.6371H25.2C25.5958 24.6371 25.9113 24.3155 25.9113 23.9258C25.9113 23.5361 25.5897 23.2144 25.2 23.2144Z" fill="#B5B5B5"/>
</g>
</svg>
