<svg width="40" height="40" viewBox="0 0 40 40" fill="none" xmlns="http://www.w3.org/2000/svg">
<g id="Group">
<g id="Group_2">
<path id="Vector" d="M30.2596 20.0008C30.2596 24.7217 30.258 29.4425 30.2627 34.1634C30.2627 34.818 30.0658 35.4048 29.6326 35.8717C29.1963 36.3433 28.6512 36.6635 27.9676 36.6619C25.9323 36.6587 23.897 36.6619 21.8618 36.6619C18.7428 36.6619 15.6221 36.6572 12.5031 36.6666C12.0053 36.6682 11.5548 36.5641 11.1373 36.2975C10.6159 35.9647 10.2914 35.4978 10.115 34.9016C10.0063 34.5325 10 34.1634 10 33.788C10 24.4787 10 15.171 10.0016 5.86174C10.0016 5.20874 10.2048 4.61567 10.649 4.12828C11.1011 3.63458 11.6572 3.33489 12.3424 3.33331C17.5282 3.33331 22.714 3.33331 27.8982 3.33331C28.4638 3.33331 28.9505 3.53836 29.3774 3.90114C29.9839 4.41693 30.258 5.08097 30.258 5.86963C30.258 10.5811 30.258 15.2909 30.258 20.0023L30.2596 20.0008ZM11.3721 29.8006H28.9048V29.3605C28.9048 21.567 28.9048 13.772 28.9048 5.97846C28.9048 5.87594 28.908 5.77341 28.9048 5.67089C28.8875 5.27183 28.7158 4.96583 28.3519 4.78286C28.0936 4.65352 27.8274 4.58254 27.5296 4.58254C22.6195 4.58885 17.711 4.58728 12.8008 4.58728C12.7189 4.58728 12.637 4.57939 12.5551 4.58885C11.8809 4.66614 11.3484 5.04943 11.3484 5.79234C11.3595 13.6884 11.3547 21.5844 11.3563 29.482C11.3563 29.5813 11.3658 29.6807 11.3721 29.8006ZM28.9048 31.1413H11.3815C11.3705 31.2186 11.3563 31.277 11.3563 31.3369C11.3563 32.3511 11.3579 33.3637 11.3563 34.3779C11.3563 34.8417 11.769 35.2549 12.1944 35.3464C12.3928 35.389 12.5992 35.4064 12.8008 35.4064C17.6873 35.4095 22.5754 35.4095 27.4619 35.4064C27.6446 35.4064 27.8289 35.3858 28.0085 35.3543C28.5551 35.2565 28.9033 34.8369 28.9048 34.2802C28.9064 33.3385 28.9048 32.3968 28.9048 31.4552C28.9048 31.3637 28.9048 31.2738 28.9048 31.1429V31.1413Z" fill="white"/>
<path id="Vector_2" d="M18.9318 21.2341C17.7551 21.2341 16.5799 21.2357 15.4032 21.2341C15.0283 21.2341 14.7889 20.9991 14.7747 20.6331C14.7589 20.1994 14.9558 19.9817 15.3938 19.9801C17.7661 19.977 20.1385 19.9896 22.5124 19.9691C22.8952 19.9659 23.2087 20.3808 23.1394 20.7372C23.0937 20.9722 22.8322 21.2199 22.5833 21.2309C22.3486 21.242 22.1123 21.2357 21.8776 21.2357C20.8962 21.2357 19.9132 21.2357 18.9318 21.2357V21.2341Z" fill="white"/>
<path id="Vector_3" d="M22.5013 18.2766C21.7247 18.2766 20.9496 18.2782 20.173 18.2766C19.7351 18.275 19.4909 18.0163 19.5067 17.5841C19.5177 17.2781 19.743 17.0321 20.0596 16.9895C20.1305 16.98 20.203 16.9848 20.2739 16.9848C21.7751 16.9848 23.2763 16.9848 24.7776 16.9848C24.9193 16.9848 25.0548 16.9863 25.1856 17.0762C25.4486 17.2545 25.5573 17.5289 25.4644 17.8491C25.3919 18.0983 25.1509 18.2766 24.8595 18.2766C24.0734 18.2797 23.2874 18.2766 22.4997 18.2766H22.5013Z" fill="white"/>
<path id="Vector_4" d="M13.6546 11.1677C13.6483 11.2892 13.6404 11.3885 13.6388 11.4879C13.6372 11.9579 13.6357 12.428 13.6388 12.8996C13.6404 13.1599 13.549 13.3586 13.297 13.4595C13.0434 13.5621 12.6527 13.4911 12.5062 13.2955C12.4385 13.204 12.3928 13.0715 12.3912 12.958C12.3818 12.1188 12.3818 11.2813 12.3881 10.4422C12.3912 10.1188 12.6511 9.85855 12.9725 9.85697C13.7901 9.85066 14.606 9.85382 15.4236 9.85382C15.7056 9.85382 15.8773 10.0352 15.9891 10.2545C16.112 10.4942 16.0128 10.7844 15.8143 10.9721C15.6788 11.0999 15.5355 11.1583 15.348 11.1535C14.888 11.1425 14.4296 11.1488 13.9696 11.1504C13.8704 11.1504 13.7711 11.1598 13.6546 11.1661V11.1677Z" fill="white"/>
<path id="Vector_5" d="M13.6388 24.1079C14.2422 24.1079 14.7935 24.1143 15.3449 24.1048C15.5323 24.1016 15.6757 24.1568 15.8111 24.2862C16.0269 24.4928 16.0868 24.7136 15.9765 25.0039C15.8946 25.22 15.6473 25.4029 15.4157 25.4029C14.6076 25.4061 13.7995 25.4077 12.9914 25.4029C12.6448 25.3998 12.3912 25.149 12.3881 24.802C12.3818 23.9723 12.3944 23.1426 12.3818 22.313C12.377 21.9991 12.6826 21.7404 13.0166 21.7562C13.4151 21.7767 13.6262 21.9423 13.6341 22.3193C13.6436 22.7909 13.6373 23.2609 13.6388 23.7326C13.6388 23.843 13.6388 23.9534 13.6388 24.1079Z" fill="white"/>
<path id="Vector_6" d="M26.6207 24.0921C26.6207 23.5685 26.6207 23.089 26.6207 22.6079C26.6207 22.5053 26.6112 22.4012 26.6254 22.3019C26.6396 22.2025 26.6585 22.0968 26.7057 22.0116C26.827 21.7924 27.1263 21.7025 27.443 21.7719C27.7013 21.8287 27.8651 22.0164 27.8714 22.2987C27.8809 22.7688 27.8762 23.2404 27.8762 23.7104C27.8762 24.048 27.8793 24.3855 27.8762 24.723C27.8714 25.1584 27.6336 25.3997 27.1893 25.4044C26.679 25.4092 26.167 25.4044 25.6566 25.4044C25.4014 25.4044 25.1462 25.4092 24.891 25.4044C24.4531 25.3918 24.1538 25.0133 24.242 24.5937C24.2877 24.3713 24.6027 24.1126 24.8453 24.111C25.3258 24.1063 25.8063 24.111 26.2867 24.1079C26.386 24.1079 26.4852 24.0984 26.6222 24.0921H26.6207Z" fill="white"/>
<path id="Vector_7" d="M26.6049 11.1661C26.4883 11.1598 26.3891 11.1503 26.2898 11.1503C25.8204 11.1487 25.351 11.1503 24.8815 11.1487C24.6153 11.1471 24.2939 10.9027 24.2435 10.6692C24.1805 10.3743 24.3711 9.98939 24.6452 9.88055C24.7177 9.85216 24.8059 9.85216 24.8862 9.85216C25.6613 9.85059 26.4379 9.84901 27.2129 9.85216C27.6351 9.85374 27.873 10.0919 27.8745 10.5194C27.8777 11.2954 27.8682 12.073 27.8793 12.8491C27.8824 13.1282 27.7816 13.3412 27.5343 13.4421C27.2917 13.5415 27.0381 13.5289 26.8112 13.3554C26.6553 13.2355 26.6206 13.0746 26.6206 12.8948C26.6206 12.4248 26.6206 11.9547 26.6206 11.4847C26.6206 11.3853 26.6112 11.2859 26.6049 11.1645V11.1661Z" fill="white"/>
<path id="Vector_8" d="M17.7439 15.2797C16.9673 15.2797 16.1923 15.2781 15.4157 15.2797C15.214 15.2797 15.0219 15.2529 14.8943 15.081C14.7336 14.8649 14.7289 14.6156 14.8312 14.3806C14.9305 14.1551 15.1038 14.0178 15.3794 14.0194C16.972 14.0257 18.5662 14.0194 20.1588 14.0242C20.518 14.0242 20.7511 14.2797 20.7558 14.6551C20.7606 15.0541 20.5637 15.2718 20.1651 15.275C19.3586 15.2813 18.552 15.2765 17.7455 15.2765L17.7439 15.2797Z" fill="white"/>
<path id="Vector_9" d="M20.1275 6.6692C19.6376 6.6692 19.1461 6.66763 18.6562 6.6692C18.3789 6.67078 18.1788 6.54302 18.078 6.29538C17.9772 6.04459 17.9977 5.78906 18.1883 5.57928C18.3332 5.41997 18.5254 5.36161 18.7412 5.36319C19.2422 5.36634 19.7431 5.36319 20.2425 5.36319C20.6709 5.36319 21.101 5.36477 21.5295 5.36319C21.7437 5.36319 21.9359 5.42313 22.0776 5.58717C22.2698 5.81272 22.2777 6.06983 22.1674 6.33481C22.0619 6.58403 21.8524 6.66763 21.5988 6.6692C21.1089 6.67078 20.6174 6.6692 20.1275 6.6692Z" fill="white"/>
<path id="Vector_10" d="M16.5594 18.2766C16.1814 18.2766 15.8033 18.2798 15.4237 18.2766C15.0125 18.2719 14.7747 18.0306 14.7747 17.6268C14.7747 17.2261 15.0157 16.9864 15.43 16.9848C16.1861 16.9817 16.9438 16.9927 17.6999 16.9801C18.0875 16.9738 18.475 17.2703 18.3458 17.8318C18.2875 18.0858 18.0402 18.2719 17.7551 18.2751C17.3565 18.2798 16.958 18.2751 16.5594 18.2751V18.2766Z" fill="white"/>
<path id="Vector_11" d="M23.7206 14.0242C24.1081 14.0242 24.4972 14.0368 24.8847 14.0194C25.1635 14.0084 25.3478 14.1456 25.4392 14.3712C25.5369 14.6125 25.5337 14.8759 25.3541 15.0983C25.2517 15.2245 25.1084 15.2781 24.9477 15.2781C24.1097 15.2781 23.2732 15.2797 22.4351 15.2781C22.1989 15.2781 22.0082 15.174 21.9374 14.9437C21.8649 14.7087 21.8287 14.4626 22.0193 14.2497C22.1547 14.0967 22.3075 14.0115 22.5249 14.0194C22.9235 14.0352 23.322 14.0242 23.7206 14.0242Z" fill="white"/>
<path id="Vector_12" d="M24.88 21.2341C24.5256 21.2325 24.2373 20.9517 24.2373 20.6063C24.2373 20.2388 24.4972 19.9801 24.8674 19.9785C25.2896 19.9769 25.4928 20.1883 25.4865 20.6236C25.4818 20.9943 25.2408 21.2341 24.8784 21.2325L24.88 21.2341Z" fill="white"/>
<path id="Vector_13" d="M20.1133 33.7643C19.3667 33.7643 18.6216 33.7643 17.8749 33.7643C17.6024 33.7643 17.4007 33.6649 17.2227 33.4393C16.9896 33.1444 17.1755 32.5434 17.6071 32.4772C17.7174 32.4598 17.8308 32.4567 17.9426 32.4567C19.4045 32.4567 20.8663 32.4567 22.3266 32.4567C22.4384 32.4567 22.5534 32.4567 22.6606 32.4803C22.9441 32.5434 23.1268 32.7658 23.141 33.0387C23.1552 33.3337 23.0024 33.6049 22.7377 33.6964C22.6054 33.7422 22.4589 33.7579 22.3187 33.7595C21.5831 33.7658 20.8474 33.7627 20.1118 33.7627L20.1133 33.7643Z" fill="white"/>
</g>
</g>
</svg>
