<svg width="24" height="21" viewBox="0 0 24 21" fill="none" xmlns="http://www.w3.org/2000/svg">
<g id="Vector">
<path d="M6.15065 15.8161H4.96535V14.6308C4.96535 14.3718 4.75617 14.1627 4.4972 14.1627C4.23822 14.1627 4.02905 14.3718 4.02905 14.6308V15.8161H2.84374C2.58477 15.8161 2.3756 16.0253 2.3756 16.2843C2.3756 16.5433 2.58477 16.7524 2.84374 16.7524H4.02905V17.9377C4.02905 18.1967 4.23822 18.4059 4.4972 18.4059C4.75617 18.4059 4.96535 18.1967 4.96535 17.9377V16.7524H6.15065C6.40963 16.7524 6.6188 16.5433 6.6188 16.2843C6.6188 16.0253 6.40963 15.8161 6.15065 15.8161ZM3.42644 5.99999C3.5111 6.1743 3.69039 6.27888 3.87466 6.27888C3.94937 6.27888 4.02407 6.26394 4.0938 6.22908L14.0942 1.03464C14.2934 0.940014 14.5375 1.0197 14.6371 1.21393L17.4858 6.5279C17.6103 6.77193 17.9091 6.87154 18.1531 6.74703C18.3972 6.62252 18.4968 6.3237 18.3723 6.07967L15.5236 0.765704C15.1799 0.0883855 14.3382 -0.195491 13.6559 0.143169L3.65553 5.33263C3.40652 5.45215 3.30691 5.75097 3.42644 5.99999ZM22.3416 9.26705H18.8554C17.3463 9.26705 16.1162 10.4972 16.1162 12.0062C16.1162 13.5152 17.3463 14.7454 18.8554 14.7454H22.3416C23.2579 14.7454 24 14.0033 24 13.0869V10.9255C24 10.0091 23.2579 9.26705 22.3416 9.26705ZM23.0039 13.0869C23.0039 13.4505 22.7051 13.7493 22.3416 13.7493H18.8554C17.8942 13.7493 17.1123 12.9674 17.1123 12.0062C17.1123 11.045 17.8942 10.2631 18.8554 10.2631H22.3416C22.7051 10.2631 23.0039 10.5619 23.0039 10.9255V13.0869ZM18.7109 11.06C18.2129 11.06 17.8145 11.4634 17.8145 11.9564C17.8145 12.4495 18.2179 12.8529 18.7109 12.8529C19.204 12.8529 19.6074 12.4495 19.6074 11.9564C19.6074 11.4634 19.204 11.06 18.7109 11.06ZM21.4501 13.9933C21.1762 13.9933 20.9521 14.2175 20.9521 14.4914V16.9815C20.9521 17.3351 20.6682 17.619 20.3146 17.619H8.77028C8.91471 17.1757 8.99938 16.7076 8.99938 16.2146C8.99938 13.7344 6.98236 11.7174 4.50218 11.7174C4.26811 11.7174 4.04399 11.7423 3.81988 11.7771V7.02094H19.9311C20.2847 7.02094 20.957 7.30482 20.957 7.65842V9.27203C20.957 9.54595 21.1812 9.77006 21.4551 9.77006C21.729 9.77006 21.9531 9.54595 21.9531 9.27203V7.65842C21.9531 6.75699 20.8325 6.02489 19.9311 6.02489H19.8863V3.51482C19.8863 2.40422 18.9898 1.50777 17.8792 1.50777H15.8821C15.6082 1.50777 15.3841 1.73188 15.3841 2.0058C15.3841 2.27971 15.6082 2.50382 15.8821 2.50382H17.8792C18.437 2.50382 18.8902 2.95703 18.8902 3.51482V6.02489H3.8149V3.51482C3.8149 2.95703 4.26811 2.50382 4.8259 2.50382H10.7574C11.0313 2.50382 11.2554 2.27971 11.2554 2.0058C11.2554 1.73188 11.0313 1.50777 10.7574 1.50777H4.8259C3.71529 1.50777 2.81884 2.40422 2.81884 3.51482V12.051C1.17037 12.7184 0 14.332 0 16.2195C0 18.6997 2.01702 20.7167 4.4972 20.7167C6.11081 20.7167 7.52521 19.8601 8.32206 18.5752C8.38182 18.6001 8.45155 18.6151 8.52127 18.6151H20.3146C21.216 18.6151 21.9481 17.8829 21.9481 16.9815V14.4914C21.9481 14.2175 21.724 13.9933 21.4501 13.9933ZM4.4972 19.6908C2.58477 19.6908 1.02594 18.132 1.02594 16.2195C1.02594 14.3071 2.58477 12.7483 4.4972 12.7483C6.40963 12.7483 7.96846 14.3071 7.96846 16.2195C7.96846 18.132 6.40963 19.6908 4.4972 19.6908Z" fill="black"/>
<path d="M6.15065 15.8161H4.96535V14.6308C4.96535 14.3718 4.75617 14.1627 4.4972 14.1627C4.23822 14.1627 4.02905 14.3718 4.02905 14.6308V15.8161H2.84374C2.58477 15.8161 2.3756 16.0253 2.3756 16.2843C2.3756 16.5433 2.58477 16.7524 2.84374 16.7524H4.02905V17.9377C4.02905 18.1967 4.23822 18.4059 4.4972 18.4059C4.75617 18.4059 4.96535 18.1967 4.96535 17.9377V16.7524H6.15065C6.40963 16.7524 6.6188 16.5433 6.6188 16.2843C6.6188 16.0253 6.40963 15.8161 6.15065 15.8161ZM3.42644 5.99999C3.5111 6.1743 3.69039 6.27888 3.87466 6.27888C3.94937 6.27888 4.02407 6.26394 4.0938 6.22908L14.0942 1.03464C14.2934 0.940014 14.5375 1.0197 14.6371 1.21393L17.4858 6.5279C17.6103 6.77193 17.9091 6.87154 18.1531 6.74703C18.3972 6.62252 18.4968 6.3237 18.3723 6.07967L15.5236 0.765704C15.1799 0.0883855 14.3382 -0.195491 13.6559 0.143169L3.65553 5.33263C3.40652 5.45215 3.30691 5.75097 3.42644 5.99999ZM22.3416 9.26705H18.8554C17.3463 9.26705 16.1162 10.4972 16.1162 12.0062C16.1162 13.5152 17.3463 14.7454 18.8554 14.7454H22.3416C23.2579 14.7454 24 14.0033 24 13.0869V10.9255C24 10.0091 23.2579 9.26705 22.3416 9.26705ZM23.0039 13.0869C23.0039 13.4505 22.7051 13.7493 22.3416 13.7493H18.8554C17.8942 13.7493 17.1123 12.9674 17.1123 12.0062C17.1123 11.045 17.8942 10.2631 18.8554 10.2631H22.3416C22.7051 10.2631 23.0039 10.5619 23.0039 10.9255V13.0869ZM18.7109 11.06C18.2129 11.06 17.8145 11.4634 17.8145 11.9564C17.8145 12.4495 18.2179 12.8529 18.7109 12.8529C19.204 12.8529 19.6074 12.4495 19.6074 11.9564C19.6074 11.4634 19.204 11.06 18.7109 11.06ZM21.4501 13.9933C21.1762 13.9933 20.9521 14.2175 20.9521 14.4914V16.9815C20.9521 17.3351 20.6682 17.619 20.3146 17.619H8.77028C8.91471 17.1757 8.99938 16.7076 8.99938 16.2146C8.99938 13.7344 6.98236 11.7174 4.50218 11.7174C4.26811 11.7174 4.04399 11.7423 3.81988 11.7771V7.02094H19.9311C20.2847 7.02094 20.957 7.30482 20.957 7.65842V9.27203C20.957 9.54595 21.1812 9.77006 21.4551 9.77006C21.729 9.77006 21.9531 9.54595 21.9531 9.27203V7.65842C21.9531 6.75699 20.8325 6.02489 19.9311 6.02489H19.8863V3.51482C19.8863 2.40422 18.9898 1.50777 17.8792 1.50777H15.8821C15.6082 1.50777 15.3841 1.73188 15.3841 2.0058C15.3841 2.27971 15.6082 2.50382 15.8821 2.50382H17.8792C18.437 2.50382 18.8902 2.95703 18.8902 3.51482V6.02489H3.8149V3.51482C3.8149 2.95703 4.26811 2.50382 4.8259 2.50382H10.7574C11.0313 2.50382 11.2554 2.27971 11.2554 2.0058C11.2554 1.73188 11.0313 1.50777 10.7574 1.50777H4.8259C3.71529 1.50777 2.81884 2.40422 2.81884 3.51482V12.051C1.17037 12.7184 0 14.332 0 16.2195C0 18.6997 2.01702 20.7167 4.4972 20.7167C6.11081 20.7167 7.52521 19.8601 8.32206 18.5752C8.38182 18.6001 8.45155 18.6151 8.52127 18.6151H20.3146C21.216 18.6151 21.9481 17.8829 21.9481 16.9815V14.4914C21.9481 14.2175 21.724 13.9933 21.4501 13.9933ZM4.4972 19.6908C2.58477 19.6908 1.02594 18.132 1.02594 16.2195C1.02594 14.3071 2.58477 12.7483 4.4972 12.7483C6.40963 12.7483 7.96846 14.3071 7.96846 16.2195C7.96846 18.132 6.40963 19.6908 4.4972 19.6908Z" fill="black" fill-opacity="0.2"/>
</g>
</svg>
