<svg width="25" height="25" viewBox="0 0 25 25" fill="none" xmlns="http://www.w3.org/2000/svg">
<g id="Group 297">
<path id="Vector" fill-rule="evenodd" clip-rule="evenodd" d="M17.9402 14.8965C17.6367 14.7448 16.1729 14.0218 15.8962 13.9237C15.6285 13.8255 15.4232 13.7719 15.2268 14.0754C15.0305 14.3789 14.4503 15.0483 14.2807 15.2446C14.1022 15.441 13.9327 15.4678 13.6381 15.316C13.3347 15.1643 12.3707 14.8519 11.2283 13.8255C10.3357 13.0311 9.73772 12.0493 9.56814 11.7548C9.38963 11.4513 9.55029 11.2907 9.70202 11.1389C9.8359 11.0051 10.0055 10.7909 10.1483 10.6124C10.3 10.4338 10.3446 10.3089 10.4518 10.1125C10.5499 9.91617 10.4964 9.73766 10.425 9.58593C10.3536 9.4342 9.75557 7.96151 9.50566 7.36351C9.26468 6.78336 9.01477 6.85477 8.82733 6.84584C8.64883 6.83691 8.45247 6.83691 8.25611 6.83691C8.05975 6.83691 7.72951 6.90832 7.46175 7.21178C7.18506 7.51524 6.41748 8.2382 6.41748 9.71089C6.41748 11.1836 7.48853 12.6116 7.64026 12.808C7.79199 13.0044 9.74665 16.0301 12.7545 17.3242C13.4685 17.6277 14.0308 17.8151 14.4593 17.9579C15.1733 18.19 15.8338 18.1543 16.3425 18.074C16.9137 17.9847 18.1097 17.351 18.3596 16.6459C18.6096 15.9497 18.6096 15.3517 18.5382 15.2178C18.4667 15.0929 18.2704 15.0215 17.9669 14.8698L17.9402 14.8965Z" fill="white"/>
<path id="Vector_2" d="M12.4955 0C5.60514 0 0 5.60514 0 12.4955C0 14.9411 0.705105 17.3063 2.05284 19.3502L0.624777 22.849C0.383792 23.4381 0.517672 24.0985 0.972867 24.5448C1.41914 24.9821 2.09747 25.116 2.66869 24.8661L6.2924 23.331C8.18458 24.4198 10.3356 25 12.4955 25C19.3859 25 24.9911 19.3949 24.9911 12.5045C24.9911 5.61407 19.3949 0 12.4955 0ZM12.4955 23.0989C10.9871 23.0989 9.52339 22.7776 8.13102 22.1528C7.55087 21.894 7.01535 21.5905 6.55123 21.2692L6.45305 21.1978L2.70439 22.7865L4.21278 19.0914L4.13245 18.9932C3.74866 18.5023 3.43627 18.0293 3.17744 17.5562C2.33845 16.0211 1.90111 14.2717 1.90111 12.5134C1.90111 6.65834 6.65834 1.90111 12.4955 1.90111C18.3327 1.90111 23.09 6.65834 23.09 12.4955C23.09 18.3327 18.3327 23.09 12.4955 23.09V23.0989Z" fill="white"/>
</g>
</svg>
